<?xml version="1.0" encoding="UTF-8"?>
<svg id="Capa_2" data-name="Capa 2" xmlns="http://www.w3.org/2000/svg" viewBox="0 0 509.67 96.94">
  <defs>
    <style>
      .cls-1 {
        fill: #fff;
      }

      .cls-2 {
        fill: #45ae6c;
      }

      .cls-3 {
        fill: none;
        stroke: #fff;
        stroke-miterlimit: 10;
      }
    </style>
  </defs>
  <g id="Layer_1" data-name="Layer 1">
    <g>
      <g>
        <polygon class="cls-1" points="220.09 18.79 211.36 18.79 211.36 22.73 220.09 22.73 220.09 41.57 224.45 41.57 224.45 22.73 233.15 22.73 233.15 18.79 224.45 18.79 220.09 18.79"/>
        <path class="cls-1" d="m240.19,33.2c0-1.07.15-1.97.46-2.72s.82-1.31,1.55-1.7c.73-.38,1.71-.58,2.96-.58,1.68,0,2.88.33,3.62.99.74.66,1.11,1.77,1.11,3.33v9.04h4.39v-10.27c0-1.34-.25-2.54-.77-3.6-.51-1.06-1.27-1.9-2.29-2.52-1.02-.61-2.3-.92-3.84-.92-1.43,0-2.63.26-3.6.78-.98.52-1.72,1.2-2.24,2.04-.52.84-.88,1.73-1.09,2.69h-.24v-10.98h-4.39v22.78h4.39v-8.36Z"/>
        <path class="cls-1" d="m271.3,25.21c-1.36-.63-2.94-.95-4.73-.95s-3.49.37-4.88,1.1c-1.39.74-2.48,1.76-3.26,3.08-.78,1.32-1.17,2.87-1.17,4.66,0,1.93.39,3.55,1.17,4.86s1.88,2.3,3.3,2.96,3.05.99,4.91.99c1.75,0,3.28-.26,4.59-.78,1.31-.52,2.34-1.25,3.08-2.19s1.11-2.01,1.11-3.21v-.34h-4.35v.31c0,.86-.35,1.52-1.05,1.99-.7.46-1.87.7-3.5.7-1.88,0-3.21-.4-3.98-1.19-.7-.72-1.06-1.78-1.13-3.16h14.08c.05-.27.08-.53.1-.78.02-.25.03-.52.03-.82,0-1.75-.38-3.22-1.14-4.44-.76-1.21-1.82-2.14-3.18-2.77Zm-8.79,3.69c.76-.8,2.08-1.21,3.96-1.21,1.7,0,2.95.33,3.76,1,.78.65,1.17,1.64,1.2,2.98h-10c.11-1.18.47-2.11,1.09-2.77Z"/>
        <polygon class="cls-1" points="289.32 32.08 301.97 32.08 301.97 41.57 306.35 41.57 306.35 18.79 301.97 18.79 301.97 28.14 289.32 28.14 289.32 18.79 284.93 18.79 284.93 41.57 289.32 41.57 289.32 32.08"/>
        <path class="cls-1" d="m323.45,41.13c1.31-.52,2.34-1.25,3.08-2.19s1.11-2.01,1.11-3.21v-.34h-4.35v.31c0,.86-.35,1.52-1.05,1.99-.7.46-1.87.7-3.5.7-1.88,0-3.21-.4-3.98-1.19-.7-.72-1.06-1.78-1.13-3.16h14.08c.05-.27.08-.53.1-.78.02-.25.03-.52.03-.82,0-1.75-.38-3.22-1.14-4.44-.76-1.21-1.82-2.14-3.18-2.77s-2.94-.95-4.73-.95-3.49.37-4.88,1.1c-1.39.74-2.48,1.76-3.26,3.08-.78,1.32-1.17,2.87-1.17,4.66,0,1.93.39,3.55,1.17,4.86s1.88,2.3,3.3,2.96,3.05.99,4.91.99c1.75,0,3.28-.26,4.59-.78Zm-8.72-12.22c.76-.8,2.08-1.21,3.96-1.21,1.7,0,2.95.33,3.76,1,.78.65,1.17,1.64,1.2,2.98h-10c.11-1.18.47-2.11,1.09-2.77Z"/>
        <path class="cls-1" d="m344.04,25.18c-1.19-.61-2.71-.92-4.57-.92s-3.38.3-4.71.9-2.35,1.42-3.06,2.46-1.07,2.23-1.07,3.57v.14h4.39v-.17c0-1.11.33-1.9,1-2.36.67-.46,1.72-.7,3.14-.7s2.55.24,3.16.71c.61.48.92,1.35.92,2.62v.82l-7.51.78c-1.16.11-2.14.35-2.96.71s-1.44.85-1.87,1.46c-.43.61-.65,1.35-.65,2.21,0,1.41.52,2.5,1.56,3.3,1.04.79,2.46,1.19,4.25,1.19,1.9,0,3.47-.39,4.71-1.17s2.06-1.85,2.46-3.21h.24v4.05h4.08v-10.13c0-1.43-.29-2.67-.87-3.74-.58-1.06-1.46-1.9-2.65-2.52Zm-3.55,13.17c-.88.28-1.95.42-3.2.42-.91,0-1.57-.14-1.99-.41-.42-.27-.63-.68-.63-1.22s.19-.93.56-1.17.95-.39,1.72-.46l6.28-.71c-.02.91-.25,1.65-.71,2.22-.48.6-1.16,1.04-2.04,1.33Z"/>
        <path class="cls-1" d="m361.58,28.73c.49.49.73,1.28.73,2.36v1.63h4.39v-2.52c0-1.09-.19-2.08-.56-2.99-.37-.91-.96-1.63-1.75-2.16-.79-.53-1.84-.8-3.13-.8-1.16,0-2.13.22-2.92.65-.79.43-1.43,1.01-1.9,1.73-.48.73-.79,1.55-.95,2.48h-.27v-4.52h-4.05v16.97h4.39v-9.69c0-1.27.28-2.23.83-2.89.55-.66,1.48-.99,2.77-.99,1.13,0,1.94.24,2.43.73Z"/>
        <path class="cls-1" d="m375.17,21.1h-4.39v3.5h-2.75v3.64h2.75v7.41c0,2.09.55,3.59,1.65,4.52,1.1.93,2.59,1.39,4.47,1.39h4.08v-3.94h-3.06c-.98,0-1.68-.16-2.11-.48s-.65-.95-.65-1.9v-7h5.81v-3.64h-5.81v-3.5Z"/>
        <path class="cls-1" d="m403.79,25.37c-1.43-.74-3.09-1.1-5-1.1s-3.58.37-5.02,1.1c-1.44.74-2.56,1.76-3.37,3.08-.81,1.32-1.21,2.87-1.21,4.66s.4,3.29,1.21,4.62c.8,1.34,1.93,2.37,3.37,3.09,1.44.73,3.11,1.09,5.02,1.09s3.57-.36,5-1.09c1.43-.72,2.54-1.76,3.35-3.09.8-1.34,1.21-2.88,1.21-4.62s-.4-3.34-1.21-4.66c-.8-1.31-1.92-2.34-3.35-3.08Zm-.99,11.42c-.79.83-2.13,1.24-4.01,1.24s-3.22-.41-4.03-1.24-1.21-2.06-1.21-3.69.4-2.9,1.21-3.72,2.15-1.24,4.03-1.24,3.22.41,4.01,1.24c.79.83,1.19,2.07,1.19,3.72s-.4,2.86-1.19,3.69Z"/>
        <path class="cls-1" d="m412.7,41.57h4.39v-13.33h5.68v-3.64h-5.79c-.07-.91.11-1.56.55-1.92.57-.46,1.55-.7,2.96-.7h2.28v-3.2h-1.6c-1.81,0-3.36.28-4.62.85-1.27.57-2.23,1.36-2.87,2.38-.48.76-.78,1.62-.9,2.58h-2.55v3.64h2.48v13.33Z"/>
        <path class="cls-1" d="m229.29,64.01c-1.01-.59-2.32-1.01-3.93-1.26l-5.95-1.02c-.77-.16-1.39-.33-1.87-.53-.48-.19-.83-.46-1.05-.8s-.34-.78-.34-1.33c0-.59.17-1.08.51-1.46.34-.38.9-.67,1.67-.87s1.81-.29,3.13-.29c1.54,0,2.75.13,3.62.39.87.26,1.48.66,1.84,1.21s.53,1.22.53,2.04v.48h4.42v-.2c0-1.56-.36-2.94-1.09-4.13-.73-1.19-1.82-2.12-3.28-2.79-1.46-.67-3.34-1-5.63-1-1.86,0-3.43.2-4.71.6-1.28.4-2.32.92-3.11,1.56-.79.65-1.37,1.38-1.73,2.19-.36.82-.54,1.64-.54,2.48,0,1.25.27,2.29.8,3.15.53.85,1.29,1.53,2.28,2.04.99.51,2.12.88,3.42,1.1l5.98.92c1.31.23,2.24.54,2.79.94s.82,1.01.82,1.85c0,.61-.16,1.11-.48,1.5-.32.39-.87.67-1.67.85-.79.18-1.9.27-3.33.27-1.59,0-2.82-.13-3.71-.39s-1.51-.65-1.87-1.16-.54-1.16-.54-1.96v-.61h-4.39v.2c0,1.7.4,3.14,1.21,4.32.8,1.18,1.99,2.07,3.55,2.69,1.56.61,3.48.92,5.75.92s4.23-.32,5.68-.97c1.45-.65,2.51-1.49,3.18-2.53.67-1.04,1-2.15,1-3.33,0-1.09-.24-2.06-.71-2.91-.48-.85-1.22-1.57-2.23-2.16Z"/>
        <path class="cls-1" d="m245.87,66.93l-1.46,4.08h-.31l-1.56-4.01-3.94-8.4h-4.96l8.33,16.99-.17.38c-.23.5-.51.86-.85,1.07-.34.21-.85.32-1.53.32h-3.74v3.98h2.58c1.29,0,2.4-.12,3.33-.37.93-.25,1.73-.69,2.4-1.31.67-.62,1.25-1.48,1.75-2.57l8.64-18.5h-4.86l-3.64,8.33Z"/>
        <path class="cls-1" d="m271.72,59.2c-1.03-.62-2.32-.93-3.86-.93s-2.7.27-3.67.8c-.97.53-1.73,1.22-2.28,2.07-.54.85-.9,1.75-1.05,2.7h-.27v-5.24h-4.05v16.97h4.39v-8.5c0-1.63.38-2.85,1.14-3.65s2-1.21,3.72-1.21,2.87.35,3.57,1.05,1.05,1.79,1.05,3.26v9.04h4.35v-10.37c0-1.29-.25-2.46-.75-3.5-.5-1.04-1.26-1.88-2.29-2.5Z"/>
        <path class="cls-1" d="m284.15,55.1h-4.39v3.5h-2.75v3.64h2.75v7.41c0,2.09.55,3.59,1.65,4.52,1.1.93,2.59,1.39,4.47,1.39h4.08v-3.94h-3.06c-.98,0-1.68-.16-2.11-.48s-.65-.95-.65-1.9v-7h5.81v-3.64h-5.81v-3.5Z"/>
        <path class="cls-1" d="m308.12,59.18c-1.02-.61-2.3-.92-3.84-.92-1.43,0-2.63.26-3.6.78-.98.52-1.72,1.2-2.24,2.04-.52.84-.88,1.73-1.09,2.69h-.24v-10.98h-4.39v22.78h4.39v-8.36c0-1.07.15-1.97.46-2.72s.82-1.31,1.55-1.7c.73-.38,1.71-.58,2.96-.58,1.68,0,2.88.33,3.62.99.74.66,1.11,1.77,1.11,3.33v9.04h4.39v-10.27c0-1.34-.25-2.54-.77-3.6-.51-1.06-1.27-1.9-2.29-2.52Z"/>
        <path class="cls-1" d="m328.21,59.21c-1.36-.63-2.94-.95-4.73-.95s-3.49.37-4.88,1.1c-1.39.74-2.48,1.76-3.26,3.08-.78,1.32-1.17,2.87-1.17,4.66,0,1.93.39,3.55,1.17,4.86s1.88,2.3,3.3,2.96,3.05.99,4.91.99c1.75,0,3.28-.26,4.59-.78,1.31-.52,2.34-1.25,3.08-2.19s1.11-2.01,1.11-3.21v-.34h-4.35v.31c0,.86-.35,1.52-1.05,1.99-.7.46-1.87.7-3.5.7-1.88,0-3.21-.4-3.98-1.19-.7-.72-1.06-1.78-1.13-3.16h14.08c.05-.27.08-.53.1-.78.02-.25.03-.52.03-.82,0-1.75-.38-3.22-1.14-4.44-.76-1.21-1.82-2.14-3.18-2.77Zm-8.79,3.69c.76-.8,2.08-1.21,3.96-1.21,1.7,0,2.95.33,3.76,1,.78.65,1.17,1.64,1.2,2.98h-10c.11-1.18.47-2.11,1.09-2.77Z"/>
        <path class="cls-1" d="m341.4,55.1h-4.39v3.5h-2.75v3.64h2.75v7.41c0,2.09.55,3.59,1.65,4.52,1.1.93,2.59,1.39,4.47,1.39h4.08v-3.94h-3.06c-.98,0-1.68-.16-2.11-.48s-.65-.95-.65-1.9v-7h5.81v-3.64h-5.81v-3.5Z"/>
        <rect class="cls-1" x="349.97" y="58.6" width="4.39" height="16.97"/>
        <rect class="cls-1" x="349.97" y="52.79" width="4.39" height="3.94"/>
        <path class="cls-1" d="m371.58,59.16c-1.35-.6-2.91-.9-4.67-.9-1.88,0-3.53.37-4.95,1.1-1.42.74-2.52,1.76-3.3,3.08-.78,1.32-1.17,2.87-1.17,4.66s.39,3.29,1.17,4.62c.78,1.34,1.88,2.37,3.3,3.09,1.42.73,3.07,1.09,4.95,1.09,1.77,0,3.33-.3,4.67-.9s2.4-1.45,3.16-2.53,1.14-2.35,1.14-3.77v-.41h-4.35v.24c0,1.2-.41,2.07-1.24,2.62s-1.98.82-3.45.82c-1.72,0-2.98-.39-3.77-1.17-.79-.78-1.19-2.01-1.19-3.69s.4-2.94,1.19-3.72c.79-.78,2.05-1.17,3.77-1.17,1.47,0,2.62.27,3.45.82s1.24,1.42,1.24,2.62v.24h4.35v-.41c0-1.45-.38-2.71-1.14-3.79-.76-1.08-1.81-1.92-3.16-2.52Z"/>
        <path class="cls-1" d="m400.26,63.77v-.27c1.81-.18,3.12-.74,3.93-1.67.8-.93,1.21-2.09,1.21-3.47,0-1.2-.28-2.21-.83-3.04-.56-.83-1.36-1.46-2.41-1.89-1.05-.43-2.33-.65-3.83-.65h-13.23v22.78h13.77c1.63,0,3-.25,4.1-.76s1.93-1.24,2.48-2.19c.55-.95.83-2.06.83-3.33,0-1.54-.5-2.8-1.5-3.77-1-.97-2.5-1.55-4.52-1.73Zm-10.81-7.04h8.33c1.11,0,1.93.22,2.45.65.52.43.78,1.11.78,2.04s-.26,1.6-.78,2.02c-.52.42-1.34.63-2.45.63h-8.33v-5.34Zm11.54,14.2c-.56.46-1.43.7-2.63.7h-8.91v-5.92h8.91c1.2,0,2.08.23,2.63.68.55.45.83,1.2.83,2.24s-.28,1.83-.83,2.29Z"/>
        <rect class="cls-1" x="409.06" y="58.6" width="4.39" height="16.97"/>
        <rect class="cls-1" x="409.06" y="52.79" width="4.39" height="3.94"/>
        <path class="cls-1" d="m431.06,59.37c-1.43-.74-3.09-1.1-5-1.1s-3.58.37-5.02,1.1c-1.44.74-2.56,1.76-3.37,3.08-.81,1.32-1.21,2.87-1.21,4.66s.4,3.29,1.21,4.62c.8,1.34,1.93,2.37,3.37,3.09,1.44.73,3.11,1.09,5.02,1.09s3.57-.36,5-1.09c1.43-.72,2.54-1.76,3.35-3.09.8-1.34,1.21-2.88,1.21-4.62s-.4-3.34-1.21-4.66c-.8-1.31-1.92-2.34-3.35-3.08Zm-.99,11.42c-.79.83-2.13,1.24-4.01,1.24s-3.22-.41-4.03-1.24-1.21-2.06-1.21-3.69.4-2.9,1.21-3.72,2.15-1.24,4.03-1.24,3.22.41,4.01,1.24c.79.83,1.19,2.07,1.19,3.72s-.4,2.86-1.19,3.69Z"/>
        <rect class="cls-1" x="438.64" y="52.79" width="4.39" height="22.78"/>
        <path class="cls-1" d="m460.64,59.37c-1.43-.74-3.09-1.1-5-1.1s-3.58.37-5.02,1.1c-1.44.74-2.56,1.76-3.37,3.08-.81,1.32-1.21,2.87-1.21,4.66s.4,3.29,1.21,4.62c.8,1.34,1.93,2.37,3.37,3.09,1.44.73,3.11,1.09,5.02,1.09s3.57-.36,5-1.09c1.43-.72,2.54-1.76,3.35-3.09.8-1.34,1.21-2.88,1.21-4.62s-.4-3.34-1.21-4.66c-.8-1.31-1.92-2.34-3.35-3.08Zm-.99,11.42c-.79.83-2.13,1.24-4.01,1.24s-3.22-.41-4.03-1.24-1.21-2.06-1.21-3.69.4-2.9,1.21-3.72,2.15-1.24,4.03-1.24,3.22.41,4.01,1.24c.79.83,1.19,2.07,1.19,3.72s-.4,2.86-1.19,3.69Z"/>
        <path class="cls-1" d="m482.74,62.78h-.24c-.29-1.5-1.04-2.62-2.23-3.38-1.19-.76-2.67-1.14-4.44-1.14s-3.13.32-4.37.97c-1.24.65-2.19,1.56-2.86,2.74-.67,1.18-1,2.55-1,4.11s.32,2.97.97,4.15c.65,1.18,1.56,2.09,2.75,2.74,1.19.65,2.62.97,4.3.97,1.9,0,3.4-.4,4.49-1.21s1.77-1.84,2.04-3.11h.27v4.01c0,1.16-.15,2.06-.44,2.7-.29.65-.79,1.09-1.48,1.34-.69.25-1.64.37-2.84.37s-2.1-.1-2.77-.29c-.67-.19-1.14-.5-1.43-.94-.28-.43-.42-1.01-.42-1.73h-4.35c0,1.41.36,2.59,1.09,3.57.73.97,1.74,1.72,3.04,2.24s2.83.78,4.57.78c1.95,0,3.63-.29,5.03-.88,1.41-.59,2.49-1.5,3.25-2.72.76-1.22,1.14-2.81,1.14-4.76v-14.72h-4.08v4.18Zm-1.65,6.43c-.9.63-2.23.95-4,.95-1.11,0-2.04-.13-2.79-.39-.75-.26-1.31-.69-1.68-1.29s-.56-1.4-.56-2.4.19-1.79.58-2.36c.38-.58.96-1,1.72-1.26.76-.26,1.71-.39,2.84-.39s2.08.14,2.86.41c.77.27,1.36.69,1.77,1.24s.61,1.26.61,2.12v.41c0,1.34-.45,2.32-1.34,2.96Z"/>
        <path class="cls-1" d="m504.81,58.6l-3.64,8.33-1.46,4.08h-.31l-1.56-4.01-3.94-8.4h-4.96l8.33,16.99-.17.38c-.23.5-.51.86-.85,1.07-.34.21-.85.32-1.53.32h-3.74v3.98h2.58c1.29,0,2.4-.12,3.33-.37.93-.25,1.73-.69,2.4-1.31.67-.62,1.25-1.48,1.75-2.57l8.64-18.5h-4.86Z"/>
      </g>
      <line class="cls-3" x1="176.32" x2="176.32" y2="96.94"/>
      <path class="cls-2" d="m71.87,21.49C71.87,7.76,58.98,0,46.34,0,24.2,0,12.1,23.88,13.8,60.94c.9,19.67,10.94,29.48,22.95,29.48,29.76,0,22.23-30.3,25.37-42.14,2.68-10.14,9.75-14.25,9.75-26.79Zm-15.09,25.39c-.87,3.29-1.05,7.34-1.23,11.62-.27,6.36-.58,13.59-3.18,18.72-1.08,2.25-2.81,4.12-4.97,5.37-2.64,1.52-6.22,2.29-10.64,2.29s-8.45-1.86-11.41-5.39c-3.57-4.25-5.65-10.74-6.02-18.81-.52-11.43.3-21.54,2.44-30.03,2.02-8.03,5.12-14.27,9.23-18.57,4.15-4.35,9.32-6.56,15.35-6.56,5.27,0,10.43,1.62,14.16,4.46,3.88,2.97,5.86,6.81,5.86,11.5,0,6.1-1.97,9.56-4.47,13.93-1.82,3.13-3.86,6.72-5.11,11.45h0Z"/>
      <path class="cls-2" d="m53.04,14.13c-4.78,0-8.65,3.87-8.65,8.64,0,4.78,3.87,8.65,8.64,8.65,4.78,0,8.65-3.87,8.65-8.64h0c0-4.78-3.87-8.65-8.64-8.65Zm0,12.87c-2.33,0-4.23-1.89-4.23-4.22,0-2.33,1.89-4.23,4.22-4.23,2.33,0,4.23,1.89,4.23,4.22h0c0,2.33-1.89,4.22-4.22,4.23Z"/>
      <path class="cls-2" d="m37.97,13.27c-1.87,0-3.39,1.52-3.39,3.39,0,1.87,1.52,3.39,3.39,3.39,1.87,0,3.39-1.52,3.39-3.39h0c0-1.87-1.51-3.39-3.38-3.39,0,0,0,0,0,0Z"/>
      <path class="cls-2" d="m121.22,67.99c-.57-.33-1.22-.5-1.88-.5h-8.62c-1.84,0-3.34-1.5-3.34-3.34,0,0,0,0,0-.01v-26.34c0-1.84,1.5-3.34,3.34-3.34h8.62c.66,0,1.31-.17,1.88-.5,1.12-.65,1.51-2.09.86-3.21l-3.18-5.5c-.65-1.12-2.09-1.51-3.21-.86l-7,4.03c-.95.55-2.16.36-2.91-.45-.75-.85-1.61-1.58-2.39-2.41-.57-.75-.64-1.78-.17-2.6l4.04-6.99c.65-1.12.26-2.56-.86-3.21l-5.49-3.18c-1.12-.65-2.56-.27-3.21.85l-4.03,7c-.55.95-1.68,1.39-2.73,1.07-.95-.32-1.92-.56-2.9-.77-1.07-.24-1.83-1.19-1.83-2.29V7.36c0-1.3-1.05-2.35-2.35-2.35h-6.35c-1.3,0-2.35,1.05-2.35,2.35h0v14.13c0,2.98-.43,5.95-1.28,8.81-.13.41.11.84.52.97.15.04.31.04.45,0,20.26-5.67,35,18.44,20.77,33.85h0c-7.94,8.72-22.69,8.46-30.33-.51-.28-.32-.77-.35-1.1-.07-.15.13-.25.32-.26.53-.56,8.21-2.55,17.69-9.05,23.32-.21.18-.24.49-.06.7.04.04.08.08.12.11l5.5,3.18c1.12.65,2.56.27,3.21-.86,0,0,0,0,0,0l4.03-6.99c.55-.95,1.68-1.4,2.73-1.07.95.3,1.92.56,2.9.77,1.07.24,1.83,1.19,1.83,2.29v8.07c0,1.3,1.05,2.35,2.35,2.35h6.35c1.3,0,2.35-1.05,2.35-2.35h0v-8.07c0-1.1.76-2.05,1.83-2.29.98-.21,1.95-.47,2.9-.77,1.05-.33,2.18.12,2.73,1.07l4.03,6.99c.65,1.12,2.09,1.51,3.21.86,0,0,0,0,0,0l5.5-3.18c1.12-.65,1.51-2.09.86-3.21l-4.03-6.99c-.55-.95-.36-2.16.44-2.9.73-.67,1.44-1.37,2.11-2.11.74-.81,1.95-1,2.91-.45l6.99,4.04c1.13.64,2.56.26,3.21-.86l3.18-5.5c.64-1.13.26-2.56-.86-3.21Z"/>
      <rect class="cls-1" y="48.07" width="7.91" height="17.15" rx="1.18" ry="1.18"/>
      <path class="cls-1" d="m50.84,48.97h-11.25c-.65,0-1.17.52-1.18,1.17,0,0,0,0,0,0v3.56c0,.65.52,1.17,1.17,1.18,0,0,0,0,0,0h4.71v2.13c0,.36-.17.71-.45.93-1.38,1.06-2.79,1.55-5.45,1.55-3.89.05-6.81-2.73-6.58-8.62,0-4.9,1.66-8.23,6.32-8.37,2.15-.04,3.88.88,4.71,2.63.19.41.61.68,1.06.68h6.44c.65,0,1.18-.53,1.18-1.18,0-.08,0-.15-.02-.23-.57-2.88-3.07-6-6.64-7.33-3.16-1.22-11.19-1.22-14.3.52-7.71,3.36-9.36,14.26-5.81,21.21,2.32,5.09,7.9,6.92,13.45,6.92,6.45,0,10.54-2.43,12.48-3.96.84-.67,1.33-1.68,1.33-2.76v-8.87c0-.65-.52-1.17-1.17-1.18,0,0,0,0-.01,0Z"/>
      <path class="cls-1" d="m91.52,36.73h-21.67c-.65,0-1.17.52-1.18,1.17,0,0,0,0,0,0v26.14c0,.65.52,1.17,1.17,1.18,0,0,0,0,0,0h21.67c.65,0,1.17-.52,1.18-1.17,0,0,0,0,0,0v-4.11c0-.65-.53-1.18-1.18-1.18h-13.44c-.32,0-.59-.26-.59-.59h0v-4.45c0-.32.26-.59.59-.59h11.94c.65,0,1.17-.53,1.18-1.18v-3.45c0-.65-.53-1.18-1.18-1.18h-11.94c-.32,0-.59-.26-.59-.59v-3.35c0-.32.26-.59.59-.59h13.44c.65,0,1.18-.53,1.18-1.18h0v-3.72c0-.65-.51-1.18-1.16-1.19,0,0-.01,0-.02,0Z"/>
      <rect class="cls-1" y="40.22" width="7.91" height="5.38" rx="1.18" ry="1.18"/>
      <path class="cls-1" d="m140.54,36.73h-9.48c-.54,0-1.01.36-1.14.88l-3.82,14.97c-.05.21-.26.34-.47.29-.14-.03-.25-.15-.29-.29l-3.86-14.98c-.13-.52-.6-.88-1.14-.88h-9.48c-.65,0-1.18.53-1.18,1.18h0v26.15c0,.65.53,1.18,1.18,1.18h4.86c.65,0,1.17-.53,1.17-1.18v-17.43c0-.22.18-.39.39-.39.18,0,.33.12.38.29l4.55,17.82c.13.52.6.89,1.14.88h4.7c.54,0,1.01-.36,1.14-.88l4.56-17.83c.05-.21.27-.33.48-.28.17.04.29.2.29.38v17.44c0,.65.52,1.17,1.17,1.18,0,0,0,0,0,0h4.85c.65,0,1.18-.53,1.18-1.18h0v-26.13c0-.65-.51-1.18-1.16-1.19,0,0-.02,0-.03,0Z"/>
    </g>
  </g>
</svg>