<svg version="1.0" xmlns="http://www.w3.org/2000/svg"
 width="1858.000000pt" height="1874.000000pt" viewBox="0 0 1858.000000 1874.000000"
 preserveAspectRatio="xMidYMid meet">

<g transform="translate(0.000000,1874.000000) scale(0.100000,-0.100000)"
fill="#000000" stroke="none">
<path d="M11030 14243 c-338 -37 -625 -113 -840 -223 -102 -53 -175 -110 -168
-131 4 -12 208 -135 323 -195 39 -20 88 -49 111 -65 44 -30 38 -30 164 6 108
31 287 64 411 76 109 10 144 9 255 -6 156 -21 228 -42 360 -105 113 -55 226
-139 297 -223 95 -111 176 -287 207 -452 53 -278 9 -770 -87 -960 l-25 -50
108 -180 c115 -193 247 -442 258 -488 4 -15 22 -45 40 -65 33 -35 35 -36 61
-22 79 42 194 200 295 405 193 393 250 729 199 1190 -21 193 -114 489 -206
655 -85 153 -245 355 -363 458 -237 207 -555 342 -875 372 -103 9 -447 11
-525 3z"/>
<path d="M3655 14160 c-27 -5 -88 -13 -135 -20 -47 -6 -101 -15 -120 -20 -19
-5 -78 -19 -130 -31 -305 -70 -631 -230 -871 -426 -289 -236 -490 -573 -569
-953 -26 -126 -29 -429 -5 -544 64 -308 265 -697 484 -936 76 -84 172 -156
195 -147 28 11 68 86 111 209 80 227 186 459 257 560 19 28 19 28 -4 60 -43
59 -100 224 -118 338 -14 93 -14 260 -1 337 67 368 307 687 623 826 124 55
219 72 403 72 196 0 272 -15 419 -85 l85 -41 88 64 c48 36 169 118 268 182 99
65 182 119 184 121 19 17 -107 136 -228 218 -90 60 -195 104 -366 154 -232 66
-415 86 -570 62z"/>
<path d="M9250 11427 c-3 -3 -39 -10 -82 -16 -170 -24 -350 -93 -459 -177
-137 -106 -229 -279 -229 -434 0 -145 115 -425 273 -664 92 -139 159 -213 277
-304 47 -37 105 -84 130 -105 167 -145 449 -287 635 -321 102 -19 404 -13 470
9 135 45 305 161 354 241 49 80 86 154 119 237 l37 92 0 195 c-1 187 -2 199
-29 280 -52 158 -121 279 -248 436 -190 236 -511 426 -853 505 -85 19 -383 39
-395 26z m352 -618 c182 -38 245 -128 256 -369 10 -250 -65 -414 -224 -487
-49 -22 -57 -23 -116 -13 -199 37 -344 197 -379 421 -26 167 70 338 238 423
68 34 141 42 225 25z"/>
<path d="M5665 11191 c-193 -32 -326 -99 -457 -234 -99 -101 -296 -350 -363
-458 -155 -250 -221 -476 -213 -724 5 -145 26 -221 93 -340 125 -223 298 -343
529 -364 359 -34 792 187 1007 514 182 275 265 577 238 860 -38 392 -208 645
-489 729 -63 19 -269 29 -345 17z m266 -554 c87 -42 135 -112 163 -234 20 -88
20 -157 1 -247 -39 -184 -182 -300 -349 -282 -139 16 -221 96 -284 281 -56
165 -50 303 17 391 67 88 158 125 301 121 80 -2 105 -7 151 -30z"/>
<path d="M7545 10120 c-33 -6 -105 -24 -160 -42 -191 -60 -211 -127 -87 -284
71 -91 203 -154 318 -154 l54 0 -6 -42 c-17 -116 -77 -247 -169 -368 -48 -64
-56 -80 -51 -107 6 -43 67 -121 116 -150 36 -22 42 -23 68 -9 89 46 172 202
222 419 22 96 25 223 6 269 -6 12 4 22 46 43 86 43 145 108 168 185 20 68 16
134 -10 164 -6 9 -49 30 -93 47 -76 30 -92 32 -222 35 -77 1 -167 -1 -200 -6z"/>
<path d="M15455 9544 c-233 -25 -409 -64 -589 -128 -97 -35 -318 -135 -366
-167 -14 -9 -59 -36 -100 -61 -183 -110 -407 -300 -559 -475 -95 -109 -309
-410 -403 -566 -56 -93 -65 -151 -25 -163 12 -3 29 -13 38 -20 9 -8 66 -39
128 -69 131 -65 389 -218 478 -284 34 -25 118 -86 187 -136 266 -190 476 -355
832 -653 533 -446 559 -465 611 -446 47 16 295 334 471 604 313 480 380 607
486 922 95 286 121 434 114 661 -5 137 -8 162 -38 252 -36 112 -71 180 -141
276 -54 73 -158 169 -185 169 -9 0 -22 7 -28 16 -10 13 -16 6 -35 -43 -13 -32
-45 -110 -72 -173 -26 -63 -54 -131 -62 -151 l-15 -37 -133 53 c-78 31 -139
61 -147 73 -13 20 -17 10 129 357 20 49 35 93 33 96 -6 11 -164 57 -254 74
-85 16 -281 27 -355 19z"/>
<path d="M11250 4006 l0 -73 -60 -13 -59 -13 -51 43 c-59 50 -60 49 -153 -46
l-57 -58 51 -52 51 -52 -19 -56 -18 -56 -77 0 -78 0 0 -85 0 -84 76 -3 77 -3
21 -59 21 -58 -55 -48 -55 -48 73 -71 c39 -39 78 -71 85 -71 7 0 34 18 61 40
55 45 48 44 115 28 l51 -11 0 -79 0 -78 90 0 90 0 0 69 c0 76 2 79 69 105 l44
17 53 -52 52 -51 35 26 c18 14 43 26 54 26 41 0 69 60 41 88 -15 15 -61 15
-76 0 -7 -7 -12 -24 -12 -38 0 -29 -16 -50 -40 -50 -9 0 -35 20 -59 44 l-43
43 -71 -28 -72 -27 -3 -72 -3 -71 -57 3 -57 3 -3 72 c-3 70 -4 73 -30 79 -15
3 -49 12 -75 19 l-48 13 -49 -39 c-27 -21 -53 -39 -58 -39 -4 0 -30 23 -57 50
l-49 50 47 48 c26 26 47 51 47 56 0 5 -12 39 -27 77 l-27 69 -68 0 -68 0 0 55
0 55 69 0 69 0 17 48 c8 26 22 58 30 72 13 24 11 27 -38 78 l-52 53 53 51 c58
55 49 56 124 -4 l35 -28 76 17 77 17 0 73 0 73 60 0 59 0 3 -67 3 -66 70 -29
c39 -15 71 -28 73 -28 2 0 25 21 53 47 56 52 81 51 87 -3 5 -39 19 -54 51 -54
32 0 51 16 51 45 0 27 -18 45 -46 45 -12 0 -36 11 -52 25 -17 14 -36 25 -43
25 -7 0 -34 -21 -60 -46 l-47 -47 -56 24 -56 23 0 68 0 68 -90 0 -90 0 0 -74z
m508 -113 c2 -8 -5 -13 -17 -13 -12 0 -21 6 -21 16 0 18 31 15 38 -3z m0 -701
c2 -7 -6 -12 -17 -12 -21 0 -27 11 -14 24 9 9 26 2 31 -12z"/>
<path d="M11154 3793 l109 -4 67 -59 67 -59 58 59 59 59 115 4 116 3 -121 2
c-132 2 -117 8 -202 -72 l-32 -30 -53 52 -53 52 -119 -2 -120 -2 109 -3z"/>
<path d="M11060 3762 c0 -4 36 -43 80 -87 l80 -80 0 -63 0 -64 -82 -84 -82
-84 104 0 104 0 63 62 63 62 63 -62 63 -62 104 0 105 0 -83 83 -82 82 0 65 0
65 87 87 88 88 -110 0 -109 0 -63 -62 -63 -62 -63 62 -63 62 -102 0 c-56 0
-102 -3 -102 -8z m158 -50 c2 -13 1 -31 -3 -39 -5 -13 -12 -10 -40 17 -19 19
-35 38 -35 43 0 4 17 7 38 5 30 -2 38 -7 40 -26z m422 21 c0 -10 -62 -73 -72
-73 -10 0 -11 64 -1 73 9 9 73 9 73 0z m-318 -70 l68 -67 68 67 c37 37 71 67
75 67 4 0 7 -24 7 -53 0 -49 -3 -56 -40 -92 -22 -21 -40 -44 -40 -50 0 -6 18
-29 40 -50 36 -36 40 -44 40 -90 0 -29 -3 -55 -7 -59 -4 -3 -38 24 -75 61
l-68 67 -68 -67 c-37 -37 -71 -67 -75 -67 -4 0 -7 26 -7 58 0 54 2 60 40 97
22 21 40 44 40 50 0 6 -18 29 -40 50 -37 36 -40 43 -40 92 0 29 3 53 7 53 4 0
38 -30 75 -67z m-52 -147 c-20 -25 -30 -19 -30 21 l0 37 22 -21 c18 -18 19
-24 8 -37z m270 14 c0 -33 -11 -38 -30 -15 -10 12 -10 18 0 30 19 23 30 18 30
-15z m-322 -166 c-3 -26 -8 -29 -40 -32 -21 -2 -38 0 -38 4 0 5 14 23 32 41
35 36 51 32 46 -13z m389 14 c18 -18 33 -36 33 -41 0 -4 -17 -7 -37 -5 -36 3
-38 5 -41 41 -2 20 0 37 4 37 5 0 23 -14 41 -32z"/>
<path d="M11330 3335 l-54 -55 -113 0 c-69 0 -113 -4 -113 -10 0 -6 45 -10
114 -10 l114 0 55 50 c30 28 59 50 64 50 5 0 31 -22 58 -50 l49 -50 118 0 c72
0 118 4 118 10 0 6 -44 10 -111 10 l-111 0 -61 55 c-34 30 -64 55 -67 55 -3 0
-30 -25 -60 -55z"/>
<path d="M10500 2904 c0 -3 12 -21 26 -40 l27 -35 -26 -36 c-35 -49 -19 -68
23 -28 l30 28 20 -26 c18 -23 29 -27 70 -27 64 0 80 21 80 107 0 56 -2 63 -20
63 -18 0 -20 -7 -20 -59 0 -40 -5 -63 -15 -71 -8 -7 -15 -9 -15 -4 0 4 -5 3
-11 -3 -9 -9 -19 -3 -41 24 l-28 36 25 33 c30 39 31 44 6 44 -11 0 -27 -10
-35 -22 l-16 -22 -23 22 c-21 20 -57 30 -57 16z"/>
<path d="M10762 2893 c2 -10 13 -19 26 -21 20 -3 22 -9 22 -56 0 -35 5 -58 15
-66 24 -20 35 -2 35 61 0 56 1 59 25 59 18 0 25 5 25 20 0 18 -7 20 -76 20
-66 0 -75 -2 -72 -17z"/>
<path d="M10930 2824 l0 -85 47 3 c36 2 49 7 51 21 3 13 -3 17 -27 17 l-31 0
0 65 c0 58 -2 65 -20 65 -18 0 -20 -7 -20 -86z"/>
<path d="M11050 2848 c0 -79 17 -108 64 -108 49 0 69 29 74 106 4 59 3 64 -16
64 -19 0 -21 -7 -24 -62 -3 -60 -4 -63 -28 -63 -23 0 -25 4 -30 60 -4 47 -9
61 -22 63 -16 3 -18 -5 -18 -60z"/>
<path d="M11307 2892 c-24 -26 -22 -29 26 -74 l42 -40 -38 4 c-34 4 -38 2 -35
-16 2 -16 12 -22 40 -24 30 -3 40 1 53 22 19 29 10 54 -30 80 -33 22 -32 38 3
34 19 -2 27 2 27 12 0 24 -67 25 -88 2z"/>
<path d="M11573 2884 c-18 -29 -21 -120 -4 -137 19 -19 41 2 41 38 0 28 4 35
19 35 16 0 20 -8 23 -37 2 -27 8 -39 21 -41 16 -3 17 1 12 31 -6 29 -3 37 14
46 18 10 22 7 40 -34 11 -25 22 -45 26 -45 3 0 10 12 16 28 l11 27 11 -22 c15
-33 25 -29 49 22 24 50 17 73 -11 36 l-19 -24 -12 24 -13 24 -10 -23 c-11 -25
-27 -29 -27 -7 0 16 -1 16 -39 20 -13 1 -28 10 -33 19 -12 22 -35 20 -41 -4
-3 -11 -10 -20 -16 -20 -18 0 -25 31 -12 51 19 32 -25 24 -46 -7z"/>
<path d="M11433 2824 c-15 -24 -15 -29 -2 -53 28 -49 109 -32 109 24 0 54 -77
75 -107 29z m64 -20 c8 -21 -13 -42 -28 -27 -13 13 -5 43 11 43 6 0 13 -7 17
-16z"/>
<path d="M11902 2838 c-16 -16 -15 -73 2 -87 8 -7 32 -11 53 -9 l38 3 0 50 0
50 -40 3 c-23 2 -46 -3 -53 -10z m58 -43 c0 -25 -23 -35 -35 -15 -10 16 2 40
20 40 9 0 15 -9 15 -25z"/>
<path d="M12024 2835 c-3 -7 -4 -30 -2 -51 4 -47 31 -55 36 -10 2 18 11 30 23
33 11 3 19 12 17 21 -4 20 -67 26 -74 7z"/>
<path d="M12127 2832 c-37 -41 -8 -95 47 -90 18 2 32 9 34 19 2 12 -4 15 -26
11 -16 -2 -33 1 -36 7 -5 7 5 11 28 11 41 0 51 12 36 40 -14 26 -61 27 -83 2z
m53 -23 c0 -5 -7 -9 -15 -9 -15 0 -20 12 -9 23 8 8 24 -1 24 -14z"/>
<path d="M11217 2804 c-15 -16 -5 -24 29 -24 24 0 34 4 32 13 -5 13 -50 22
-61 11z"/>
<path d="M11122 2679 c-27 -10 -19 -33 8 -24 31 10 31 -10 0 -40 -17 -16 -30
-32 -30 -37 0 -4 20 -8 45 -8 25 0 45 5 45 10 0 6 -7 10 -15 10 -19 0 -19 5 1
35 24 37 -10 71 -54 54z"/>
<path d="M11268 2679 c-31 -17 -41 -47 -28 -79 15 -37 37 -44 67 -25 48 32 10
132 -39 104z m27 -52 c0 -39 -19 -38 -23 2 -3 24 0 32 10 29 7 -3 13 -17 13
-31z"/>
<path d="M11387 2674 c-15 -15 -6 -24 18 -18 34 8 32 -8 -6 -51 l-31 -35 45 0
c49 0 70 14 35 23 -21 6 -21 7 -4 26 26 28 17 55 -19 59 -17 2 -34 0 -38 -4z"/>
<path d="M11531 2643 c-33 -40 -32 -53 5 -53 13 0 24 -4 24 -10 0 -15 20 -12
38 7 12 12 13 18 4 21 -6 2 -12 19 -12 38 0 45 -20 44 -59 -3z m25 -30 c-10
-10 -19 5 -10 18 6 11 8 11 12 0 2 -7 1 -15 -2 -18z"/>
<path d="M10988 2623 c18 -2 45 -2 60 0 15 2 0 4 -33 4 -33 0 -45 -2 -27 -4z"/>
<path d="M11663 2623 c15 -2 39 -2 55 0 15 2 2 4 -28 4 -30 0 -43 -2 -27 -4z"/>
</g>
</svg>
